<svg xmlns="http://www.w3.org/2000/svg" version="1.1" xmlns:xlink="http://www.w3.org/1999/xlink" xmlns:svgjs="http://svgjs.dev/svgjs" width="100%" height="100%" viewBox="0 0 1000 600"><rect width="1000" height="600" x="0" y="0" fill="#072c50"/><g><circle r="166.66666666666666" cx="537.4520670572916" cy="559.6742837673823" fill="#b88746" transform="matrix(0.33712222721906426,0,0,0.33712222721906426,0,111.32135606847527)"/><path d="M589.4641738164687 592.0389837830612L589.4641738164687 592.0389837830612Q589.4641738164687 604.4925874086853 583.2227207052736 614.1624443415228Q577.0105701908446 623.8029986775941 565.2016236940765 629.2239790793365Q553.3926771973082 634.6742620778448 536.3971710729272 634.6742620778448L536.3971710729272 634.6742620778448Q520.4565584321284 634.6742620778448 507.5341132582456 629.8100310146599Q494.6116680843628 624.9751025482412 485.43995529655024 616.0964157280903L485.43995529655024 616.0964157280903L496.3112186968009 603.8772328765956Q503.90059125924 610.9391586972438 513.7169611759084 615.1001274380403Q523.5333310925766 619.2610961788371 536.719499637355 619.2610961788371L536.719499637355 619.2610961788371Q545.5688838607398 619.2610961788371 553.2754668102435 616.3601390989859Q560.9820497597473 613.4591820191347 565.7290704358676 607.5107548756014Q570.4760911119878 601.5330251353016 570.4760911119878 592.3613123474893L570.4760911119878 592.3613123474893Q570.4760911119878 585.2993865268413 567.7216470159674 580.3472476733577Q564.9965055167132 575.3951088198744 558.0224874863637 571.5271660467395Q551.0484694560143 567.6885258703705 538.6241684271565 563.9963986778325L538.6241684271565 563.9963986778325Q524.265896011731 559.7768247435035 513.7755663694406 554.4437521320599Q503.28523672715033 549.1106795206161 497.512625164214 541.3161887808137Q491.7693161980439 533.4923954442453 491.7693161980439 522.0057775119051L491.7693161980439 522.0057775119051Q491.7693161980439 511.13451411165437 497.7763485351096 502.6953662429962Q503.8126834689415 494.256218374338 514.3909209015303 489.45059250468546Q524.9984609308854 484.6742692317991 538.8292866045197 484.6742692317991L538.8292866045197 484.6742692317991Q553.9201239390993 484.6742692317991 565.0258081134793 488.9231457628943Q576.1607948846256 493.20132489075576 585.2445998821396 501.2302364046875L585.2445998821396 501.2302364046875L574.4905468689537 513.1563932885203Q566.6667535323852 506.1823752581709 557.7001589219358 503.07630000095645Q548.7335643114866 499.970224743742 539.4446411366093 499.970224743742L539.4446411366093 499.970224743742Q531.5329400097423 499.970224743742 524.9398557373531 502.3437350818021Q518.3467714649639 504.7172454198622 514.3909209015303 509.40566090245005Q510.43507033809686 514.094076385038 510.43507033809686 521.3611203830492L510.43507033809686 521.3611203830492Q510.43507033809686 527.6025734942443 513.8341715629731 532.1444759930013Q517.203970191083 536.6570758949921 525.2035791082486 540.4078082810624Q533.2324906221804 544.1585406671327 547.0633162958146 548.2609042143971L547.0633162958146 548.2609042143971Q558.3448160507917 551.5427950522086 567.985370386863 556.4363287121596Q577.6552273197005 561.3591649688769 583.5450492697014 569.7397076440027Q589.4641738164687 578.1202503191287 589.4641738164687 592.0389837830612Z " fill="#072c50" transform="matrix(0.33712222721906426,0,0,0.33712222721906426,0,111.32135606847527)"/><path d="M881.7165357788767 596.0391070642988L881.7165357788767 596.0391070642988Q881.7165357788767 607.324289947255 876.0606676516541 616.0869025387269Q870.4313528959206 624.8229617587094 859.7303441857291 629.7353354842314Q849.0293354755378 634.674262581243 833.6283800117387 634.674262581243L833.6283800117387 634.674262581243Q819.1833459215547 634.674262581243 807.4733090947697 630.2664029140178Q795.7632722679846 625.8850966182818 787.4520669918309 617.8394250570213L787.4520669918309 617.8394250570213L797.3033678143645 606.7666691459794Q804.1806910300954 613.166031674903 813.0760704790139 616.9366104263847Q821.9714499279322 620.7071891778667 833.9204670981212 620.7071891778667L833.9204670981212 620.7071891778667Q841.9395852878923 620.7071891778667 848.9231219895805 618.078405400425Q855.9066586912687 615.4496216229834 860.2083048725367 610.0592872106538Q864.5099510538048 604.6423994268348 864.5099510538048 596.3311941506813L864.5099510538048 596.3311941506813Q864.5099510538048 589.9318316217577 862.0139341338097 585.4443118400645Q859.544470585304 580.9567920583715 853.2247681708486 577.4517470217827Q846.905065756393 573.9732553566832 835.6464362449262 570.6275305490303L835.6464362449262 570.6275305490303Q822.6352842151649 566.80384505457 813.1291772219924 561.9711314435158Q803.6230702288199 557.1384178324615 798.3920560454261 550.0752210163055Q793.1875952335216 542.98547082866 793.1875952335216 532.5765492048511L793.1875952335216 532.5765492048511Q793.1875952335216 522.7252483823175 798.6310363888299 515.0778773933966Q804.1010309156275 507.43050640447575 813.6867980232679 503.07575348022914Q823.2991185023977 498.7475539274718 835.8323098453513 498.7475539274718L835.8323098453513 498.7475539274718Q849.5072961623453 498.7475539274718 859.5710239567934 502.59779279342155Q869.6613051227307 506.4745850308606 877.8928502844162 513.7502088189312L877.8928502844162 513.7502088189312L868.14776294784 524.5574310150798Q861.0580127601946 518.2377286006245 852.9326810844661 515.4230712227577Q844.8073494087378 512.608413844891 836.3899306466269 512.608413844891L836.3899306466269 512.608413844891Q829.2205203445135 512.608413844891 823.246011759419 514.759236935525Q817.2715031743246 516.9100600261589 813.6867980232679 521.1585994644483Q810.1020928722112 525.4071389027376 810.1020928722112 531.9923750320863L810.1020928722112 531.9923750320863Q810.1020928722112 537.648243159309 813.182283964971 541.7640157401519Q816.2359216862416 545.8532349495053 823.4849921028228 549.2520665001368Q830.7606158908934 552.6508980507684 843.293807233847 556.3683700592717L843.293807233847 556.3683700592717Q853.5168552572309 559.3423476660741 862.2529144772135 563.7767607047888Q871.0155270686853 568.2377271149926 876.3527547380364 575.8319913609348Q881.7165357788767 583.4262556068772 881.7165357788767 596.0391070642988ZM985.1419177297341 562.2101117869196L985.1419177297341 610.4841411544828Q985.1419177297341 616.5117564825557 987.1599739629216 619.2733071174439Q989.1514768246197 622.0614111238212 993.3734628914199 623.3890796982867L993.3734628914199 623.3890796982867L989.4435639110022 634.674262581243Q982.9379878961215 633.7980013220958 978.0787209135781 630.5053832574215Q973.1929005595453 627.2127651927472 970.9889707259326 620.5213155774413L970.9889707259326 620.5213155774413Q965.5455295706242 627.5048522791296 957.4201978948959 631.0895574301862Q949.2948662191675 634.674262581243 939.4435653966339 634.674262581243L939.4435653966339 634.674262581243Q924.3346970192172 634.674262581243 915.6517445422132 626.1506303331748Q906.9422386937201 617.653551456596 906.9422386937201 603.6068179387519L906.9422386937201 603.6068179387519Q906.9422386937201 588.0199888745276 919.0771294643341 579.7087835983739Q931.2385736064375 571.3975783222204 954.1806865732001 571.3975783222204L954.1806865732001 571.3975783222204L968.9974678642345 571.3975783222204L968.9974678642345 562.9801595601095Q968.9974678642345 552.0667238780036 962.6246587068003 547.5260973533318Q956.2784029208556 542.98547082866 944.9932200378994 542.98547082866L944.9932200378994 542.98547082866Q940.0277395693986 542.98547082866 933.3362899540928 544.1803725456789Q926.6448403387872 545.3752742626979 918.811595749441 548.1633782690753L918.811595749441 548.1633782690753L914.5896096826409 536.0284874984611Q923.8567363324096 532.5765492048511 931.9820680081382 531.1426671444284Q940.1073996838666 529.7087850840057 947.4892369578945 529.7087850840057L947.4892369578945 529.7087850840057Q966.3155773438143 529.7087850840057 975.7154708510295 538.4448443039882Q985.1419177297341 547.2074568954602 985.1419177297341 562.2101117869196L985.1419177297341 562.2101117869196ZM943.5593379774766 622.4331583246717L943.5593379774766 622.4331583246717Q951.0208353659725 622.4331583246717 957.7919450957461 618.6625795731898Q964.5896081970093 614.892000821708 968.9974678642345 608.2005512064022L968.9974678642345 608.2005512064022L968.9974678642345 582.284460632837L954.4462202880932 582.284460632837Q937.823809735786 582.284460632837 930.9995932630336 588.0199888745276Q924.1488234187921 593.7555171162182 924.1488234187921 603.4209443383265L924.1488234187921 603.4209443383265Q924.1488234187921 612.7677311025632 928.9815370298463 617.6004447136174Q933.8142506409004 622.4331583246717 943.5593379774766 622.4331583246717ZM1101.4722382243956 616.5117564825557L1107.6857271528936 627.3986387931725Q1102.534373083968 630.8505770867826 1095.1790891814294 632.7624198340127Q1087.7972519074015 634.674262581243 1080.7340550912454 634.674262581243L1080.7340550912454 634.674262581243Q1064.4833917397884 634.674262581243 1055.6942257768274 626.1506303331748Q1046.905059813866 617.653551456596 1046.905059813866 604.2706522259846L1046.905059813866 604.2706522259846L1046.905059813866 544.2334792886576L1023.750519875189 544.2334792886576L1023.750519875189 531.8065014316611L1046.905059813866 531.8065014316611L1046.905059813866 508.97060195085567L1062.9432961934085 507.0587592036254L1062.9432961934085 531.8065014316611L1097.7547662158922 531.8065014316611L1095.842923468662 544.2334792886576L1062.9432961934085 544.2334792886576L1062.9432961934085 604.0847786255592Q1062.9432961934085 612.5021973876701 1067.4042626036123 616.8835036834062Q1071.838675642327 621.2913633506314 1082.167937151668 621.2913633506314L1082.167937151668 621.2913633506314Q1087.7972519074015 621.2913633506314 1092.5768587754771 619.9371414046766Q1097.3564656435526 618.6094728302112 1101.4722382243956 616.5117564825557L1101.4722382243956 616.5117564825557ZM1142.4971971753773 491.4719301394012L1158.5354335549198 489.74596099259617L1158.5354335549198 545.5877012346123Q1164.483388768525 537.648243159309 1173.1132345025503 533.6652374359128Q1181.7696336080649 529.7087850840057 1190.6650130569833 529.7087850840057L1190.6650130569833 529.7087850840057Q1205.3755808620604 529.7087850840057 1212.1732439633236 537.5420296733519Q1218.9709070645863 545.3752742626979 1218.9709070645863 559.3423476660741L1218.9709070645863 559.3423476660741L1218.9709070645863 632.4703327476304L1202.9061173135547 632.4703327476304L1202.9061173135547 559.7140948669246Q1202.9061173135547 550.632841817581 1198.6841312467545 546.4905158652489Q1194.4886985514438 542.3216365414273 1185.5136589880574 542.3216365414273L1185.5136589880574 542.3216365414273Q1179.7781307463667 542.3216365414273 1174.6002233059517 544.8973135758904Q1169.4488692370257 547.4995439818426 1165.3330966561828 551.3232294763029Q1161.21732407534 555.1469149707634 1158.5354335549198 559.156474065649L1158.5354335549198 559.156474065649L1158.5354335549198 632.4703327476304L1142.4971971753773 632.4703327476304L1142.4971971753773 491.4719301394012ZM1324.4940053630992 531.8065014316611L1341.1164159154062 531.8065014316611L1304.525870003139 632.4703327476304L1285.8854032176444 632.4703327476304L1249.5603910202701 531.8065014316611L1266.5545487734275 531.8065014316611L1295.7101506686886 617.8394250570213L1324.4940053630992 531.8065014316611ZM1376.69793371108 531.8065014316611L1422.8476933594984 531.8065014316611L1422.8476933594984 619.7512678042515L1451.2598008530588 619.7512678042515L1451.2598008530588 632.4703327476304L1375.742012337465 632.4703327476304L1375.742012337465 619.7512678042515L1406.809456979956 619.7512678042515L1406.809456979956 544.52556637504L1376.69793371108 544.52556637504L1376.69793371108 531.8065014316611ZM1410.0489683016517 484.6742670381382L1410.0489683016517 484.6742670381382Q1415.4127493424921 484.6742670381382 1418.599153921209 487.94033173132317Q1421.8121118714155 491.1798430530188 1421.8121118714155 495.8797898066265L1421.8121118714155 495.8797898066265Q1421.8121118714155 500.73905678917 1418.599153921209 504.0316748538442Q1415.4127493424921 507.35084629000784 1410.0489683016517 507.35084629000784L1410.0489683016517 507.35084629000784Q1404.9772743471938 507.35084629000784 1401.7377630254982 504.0316748538442Q1398.4716983323133 500.73905678917 1398.4716983323133 495.8797898066265L1398.4716983323133 495.8797898066265Q1398.4716983323133 491.1798430530188 1401.7377630254982 487.94033173132317Q1404.9772743471938 484.6742670381382 1410.0489683016517 484.6742670381382ZM1532.1148170380038 620.8134026638238L1532.1148170380038 620.8134026638238Q1539.6825279124569 620.8134026638238 1546.2146572988268 618.3173857438287Q1552.7733400566858 615.847922195323 1558.3229946979513 612.0242367008627L1558.3229946979513 612.0242367008627L1566.1562392872975 622.5393718106288Q1559.5444497864596 628.1686865663623 1550.277323136691 631.4081978880579Q1541.0101964869223 634.674262581243 1532.1148170380038 634.674262581243L1532.1148170380038 634.674262581243Q1517.1121621465445 634.674262581243 1506.5439202937996 628.2217933093409Q1495.9756784410547 621.769324037439 1490.4525771712783 610.0592872106538Q1484.902922530013 598.3492503838686 1484.902922530013 582.5765477192192L1484.902922530013 582.5765477192192Q1484.902922530013 567.4676793418028 1490.4791305427675 555.4655554286351Q1496.0818919270118 543.4634315154676 1506.6501337797567 536.5861082997367Q1517.2183756325016 529.7087850840057 1532.300690638429 529.7087850840057L1532.300690638429 529.7087850840057Q1541.9661178605372 529.7087850840057 1550.4366433656269 532.6296559478296Q1558.8806154992267 535.5505268116536 1565.9703656868724 541.3657151678123L1565.9703656868724 541.3657151678123L1558.110567726037 552.0667238780036Q1551.7112051971135 547.5792040963105 1545.2587359252116 545.3487208912086Q1538.8062666533094 543.0916843146174 1532.1148170380038 543.0916843146174L1532.1148170380038 543.0916843146174Q1519.1302183797318 543.0916843146174 1510.712799617621 552.8367716511937Q1502.2953808555098 562.5818589877699 1502.2953808555098 582.5765477192192L1502.2953808555098 582.5765477192192Q1502.2953808555098 595.9594469498309 1506.1721730929492 604.4034190834311Q1510.0489653303882 612.8739445885205 1516.7669683171835 616.8303969404276Q1523.5115246754676 620.8134026638238 1532.1148170380038 620.8134026638238ZM1664.8020143700792 531.8065014316611L1685.6464109891865 531.8065014316611L1640.3198058569367 577.133106563911L1690.9039785440696 632.4703327476304L1669.7674948385802 632.4703327476304L1620.2454570110192 577.5048537647613L1664.8020143700792 531.8065014316611ZM1602.3750379987146 491.2860565389761L1618.4398277497462 489.2680003057886L1618.4398277497462 632.4703327476304L1602.3750379987146 632.4703327476304L1602.3750379987146 491.2860565389761ZM1914.1116192831983 596.0391070642988L1914.1116192831983 596.0391070642988Q1914.1116192831983 607.324289947255 1908.455751155976 616.0869025387269Q1902.8264364002425 624.8229617587094 1892.1254276900509 629.7353354842314Q1881.4244189798596 634.674262581243 1866.0234635160605 634.674262581243L1866.0234635160605 634.674262581243Q1851.5784294258765 634.674262581243 1839.8683925990913 630.2664029140178Q1828.158355772306 625.8850966182818 1819.8471504961526 617.8394250570213L1819.8471504961526 617.8394250570213L1829.6984513186862 606.7666691459794Q1836.5757745344172 613.166031674903 1845.4711539833356 616.9366104263847Q1854.366533432254 620.7071891778667 1866.3155506024432 620.7071891778667L1866.3155506024432 620.7071891778667Q1874.334668792214 620.7071891778667 1881.3182054939025 618.078405400425Q1888.3017421955906 615.4496216229834 1892.6033883768582 610.0592872106538Q1896.9050345581263 604.6423994268348 1896.9050345581263 596.3311941506813L1896.9050345581263 596.3311941506813Q1896.9050345581263 589.9318316217577 1894.4090176381314 585.4443118400645Q1891.9395540896257 580.9567920583715 1885.6198516751701 577.4517470217827Q1879.300149260715 573.9732553566832 1868.041519749248 570.6275305490303L1868.041519749248 570.6275305490303Q1855.0303677194865 566.80384505457 1845.5242607263144 561.9711314435158Q1836.0181537331418 557.1384178324615 1830.7871395497477 550.0752210163055Q1825.5826787378433 542.98547082866 1825.5826787378433 532.5765492048511L1825.5826787378433 532.5765492048511Q1825.5826787378433 522.7252483823175 1831.0261198931516 515.0778773933966Q1836.4961144199492 507.43050640447575 1846.0818815275898 503.07575348022914Q1855.6942020067195 498.7475539274718 1868.227393349673 498.7475539274718L1868.227393349673 498.7475539274718Q1881.902379666667 498.7475539274718 1891.966107461115 502.59779279342155Q1902.0563886270525 506.4745850308606 1910.287933788738 513.7502088189312L1910.287933788738 513.7502088189312L1900.5428464521615 524.5574310150798Q1893.4530962645163 518.2377286006245 1885.3277645887879 515.4230712227577Q1877.2024329130595 512.608413844891 1868.7850141509489 512.608413844891L1868.7850141509489 512.608413844891Q1861.6156038488352 512.608413844891 1855.6410952637407 514.759236935525Q1849.6665866786466 516.9100600261589 1846.0818815275898 521.1585994644483Q1842.497176376533 525.4071389027376 1842.497176376533 531.9923750320863L1842.497176376533 531.9923750320863Q1842.497176376533 537.648243159309 1845.5773674692928 541.7640157401519Q1848.6310051905634 545.8532349495053 1855.8800756071446 549.2520665001368Q1863.1556993952154 552.6508980507684 1875.688890738169 556.3683700592717L1875.688890738169 556.3683700592717Q1885.9119387615524 559.3423476660741 1894.6479979815354 563.7767607047888Q1903.410610573007 568.2377271149926 1908.7478382423583 575.8319913609348Q1914.1116192831983 583.4262556068772 1914.1116192831983 596.0391070642988ZM1998.6044473621787 632.4703327476304L1946.427072385687 632.4703327476304L1946.427072385687 620.1495683765911L1962.0935615643793 620.1495683765911L1962.0935615643793 544.1538191741897L1946.427072385687 544.1538191741897L1946.427072385687 531.8065014316611L1974.3346658209507 531.8065014316611L1977.2820900562642 555.624875657571Q1983.123831783912 543.1978978005745 1991.4350370600655 536.4002346993116Q1999.746242336219 529.6025715980485 2013.421228653213 529.6025715980485L2013.421228653213 529.6025715980485Q2017.643214720013 529.6025715980485 2020.9358327846871 530.2398525137919Q2024.2284508493617 530.850580058046 2027.6803891429718 531.8065014316611L2027.6803891429718 531.8065014316611L2022.9804423893643 546.1453220358878Q2019.8205911821365 545.29561414823 2017.2449141476736 544.870760204401Q2014.6692371132103 544.4193528890828 2011.3235123055579 544.4193528890828L2011.3235123055579 544.4193528890828Q1999.746242336219 544.4193528890828 1991.4350370600655 552.6508980507684Q1983.123831783912 560.8824432124541 1978.158351315411 577.5048537647613L1978.158351315411 577.5048537647613L1978.158351315411 620.1495683765911L1998.6044473621787 620.1495683765911L1998.6044473621787 632.4703327476304ZM2025.370245823402 565.8479236809549L2012.1732201932155 565.8479236809549L2012.1732201932155 543.9413922022752L2013.8195292255527 531.8065014316611L2027.6803891429718 531.8065014316611L2025.370245823402 565.8479236809549ZM2064.961322713961 531.8065014316611L2111.11108236238 531.8065014316611L2111.11108236238 619.7512678042515L2139.52318985594 619.7512678042515L2139.52318985594 632.4703327476304L2064.005401340346 632.4703327476304L2064.005401340346 619.7512678042515L2095.072845982837 619.7512678042515L2095.072845982837 544.52556637504L2064.961322713961 544.52556637504L2064.961322713961 531.8065014316611ZM2098.3123573045327 484.6742670381382L2098.3123573045327 484.6742670381382Q2103.676138345373 484.6742670381382 2106.86254292409 487.94033173132317Q2110.0755008742967 491.1798430530188 2110.0755008742967 495.8797898066265L2110.0755008742967 495.8797898066265Q2110.0755008742967 500.73905678917 2106.86254292409 504.0316748538442Q2103.676138345373 507.35084629000784 2098.3123573045327 507.35084629000784L2098.3123573045327 507.35084629000784Q2093.2406633500746 507.35084629000784 2090.0011520283792 504.0316748538442Q2086.7350873351943 500.73905678917 2086.7350873351943 495.8797898066265L2086.7350873351943 495.8797898066265Q2086.7350873351943 491.1798430530188 2090.0011520283792 487.94033173132317Q2093.2406633500746 484.6742670381382 2098.3123573045327 484.6742670381382ZM2190.9305170592415 632.4703327476304L2174.892280679699 632.4703327476304L2174.892280679699 531.8065014316611L2188.540713625204 531.8065014316611L2189.7887220852012 545.7735748350375Q2195.9225508992313 538.0199903601593 2205.1365708060216 533.8776644078272Q2214.350590712812 529.7087850840057 2223.060096561305 529.7087850840057L2223.060096561305 529.7087850840057Q2237.8768778523395 529.7087850840057 2244.6214342106236 537.5420296733519Q2251.3659905689083 545.3752742626979 2251.3659905689083 559.3423476660741L2251.3659905689083 559.3423476660741L2251.3659905689083 632.4703327476304L2235.301200817876 632.4703327476304L2235.301200817876 571.1851513503059Q2235.301200817876 560.8824432124541 2234.1594058438363 554.5096340550201Q2232.9910574983064 548.1633782690753 2229.3797989757604 545.2425074052513Q2225.7419870817253 542.3216365414273 2218.0946160928042 542.3216365414273L2218.0946160928042 542.3216365414273Q2212.1732142506885 542.3216365414273 2206.942200067295 544.8973135758904Q2201.73773925539 547.4995439818426 2197.675073417526 551.3497828477923Q2193.612407579662 555.2265750852314 2190.9305170592415 559.156474065649L2190.9305170592415 559.156474065649L2190.9305170592415 632.4703327476304ZM2361.6686957354964 562.2101117869196L2361.6686957354964 610.4841411544828Q2361.6686957354964 616.5117564825557 2363.686751968684 619.2733071174439Q2365.678254830382 622.0614111238212 2369.9002408971824 623.3890796982867L2369.9002408971824 623.3890796982867L2365.9703419167645 634.674262581243Q2359.4647659018838 633.7980013220958 2354.6054989193403 630.5053832574215Q2349.7196785653077 627.2127651927472 2347.5157487316947 620.5213155774413L2347.5157487316947 620.5213155774413Q2342.0723075763867 627.5048522791296 2333.946975900658 631.0895574301862Q2325.8216442249295 634.674262581243 2315.9703434023963 634.674262581243L2315.9703434023963 634.674262581243Q2300.8614750249794 634.674262581243 2292.1785225479753 626.1506303331748Q2283.4690166994824 617.653551456596 2283.4690166994824 603.6068179387519L2283.4690166994824 603.6068179387519Q2283.4690166994824 588.0199888745276 2295.603907470096 579.7087835983739Q2307.7653516121995 571.3975783222204 2330.7074645789626 571.3975783222204L2330.7074645789626 571.3975783222204L2345.524245869997 571.3975783222204L2345.524245869997 562.9801595601095Q2345.524245869997 552.0667238780036 2339.1514367125624 547.5260973533318Q2332.8051809266176 542.98547082866 2321.519998043662 542.98547082866L2321.519998043662 542.98547082866Q2316.554517575161 542.98547082866 2309.863067959855 544.1803725456789Q2303.171618344549 545.3752742626979 2295.3383737552035 548.1633782690753L2295.3383737552035 548.1633782690753L2291.116387688403 536.0284874984611Q2300.383514338172 532.5765492048511 2308.5088460139004 531.1426671444284Q2316.634177689629 529.7087850840057 2324.0160149636567 529.7087850840057L2324.0160149636567 529.7087850840057Q2342.8423553495763 529.7087850840057 2352.242248856792 538.4448443039882Q2361.6686957354964 547.2074568954602 2361.6686957354964 562.2101117869196L2361.6686957354964 562.2101117869196ZM2320.0861159832393 622.4331583246717L2320.0861159832393 622.4331583246717Q2327.5476133717348 622.4331583246717 2334.318723101508 618.6625795731898Q2341.1163862027715 614.892000821708 2345.524245869997 608.2005512064022L2345.524245869997 608.2005512064022L2345.524245869997 582.284460632837L2330.9729982938557 582.284460632837Q2314.350587741548 582.284460632837 2307.526371268796 588.0199888745276Q2300.6756014245543 593.7555171162182 2300.6756014245543 603.4209443383265L2300.6756014245543 603.4209443383265Q2300.6756014245543 612.7677311025632 2305.5083150356086 617.6004447136174Q2310.341028646663 622.4331583246717 2320.0861159832393 622.4331583246717ZM2477.9990162301574 616.5117564825557L2484.212505158656 627.3986387931725Q2479.06115108973 630.8505770867826 2471.7058671871914 632.7624198340127Q2464.3240299131635 634.674262581243 2457.2608330970074 634.674262581243L2457.2608330970074 634.674262581243Q2441.0101697455507 634.674262581243 2432.2210037825894 626.1506303331748Q2423.4318378196285 617.653551456596 2423.4318378196285 604.2706522259846L2423.4318378196285 604.2706522259846L2423.4318378196285 544.2334792886576L2400.277297880951 544.2334792886576L2400.277297880951 531.8065014316611L2423.4318378196285 531.8065014316611L2423.4318378196285 508.97060195085567L2439.4700741991705 507.0587592036254L2439.4700741991705 531.8065014316611L2474.2815442216547 531.8065014316611L2472.3697014744243 544.2334792886576L2439.4700741991705 544.2334792886576L2439.4700741991705 604.0847786255592Q2439.4700741991705 612.5021973876701 2443.9310406093746 616.8835036834062Q2448.3654536480894 621.2913633506314 2458.6947151574304 621.2913633506314L2458.6947151574304 621.2913633506314Q2464.3240299131635 621.2913633506314 2469.1036367812394 619.9371414046766Q2473.883243649315 618.6094728302112 2477.9990162301574 616.5117564825557L2477.9990162301574 616.5117564825557ZM2519.0239751811396 491.4719301394012L2535.062211560682 489.74596099259617L2535.062211560682 545.5877012346123Q2541.010166774287 537.648243159309 2549.6400125083123 533.6652374359128Q2558.2964116138273 529.7087850840057 2567.1917910627453 529.7087850840057L2567.1917910627453 529.7087850840057Q2581.9023588678224 529.7087850840057 2588.700021969086 537.5420296733519Q2595.497685070349 545.3752742626979 2595.497685070349 559.3423476660741L2595.497685070349 559.3423476660741L2595.497685070349 632.4703327476304L2579.432895319317 632.4703327476304L2579.432895319317 559.7140948669246Q2579.432895319317 550.632841817581 2575.2109092525166 546.4905158652489Q2571.015476557206 542.3216365414273 2562.04043699382 542.3216365414273L2562.04043699382 542.3216365414273Q2556.304908752129 542.3216365414273 2551.1270013117137 544.8973135758904Q2545.975647242788 547.4995439818426 2541.859874661945 551.3232294763029Q2537.744102081102 555.1469149707634 2535.062211560682 559.156474065649L2535.062211560682 559.156474065649L2535.062211560682 632.4703327476304L2519.0239751811396 632.4703327476304L2519.0239751811396 491.4719301394012Z " fill="#b88746" transform="matrix(0.33712222721906426,0,0,0.33712222721906426,0,111.32135606847527)"/></g></svg>